HIERARCHY
ROOT root
{
	OFFSET	0	13.1	24.9
	CHANNELS 6  Xposition Yposition Zposition Xrotation Yrotation Zrotation
	JOINT spine_1
	{
		OFFSET	0	9.99999	0
		CHANNELS 3  Xrotation Yrotation Zrotation
		JOINT spine_2
		{
			OFFSET	0	112	-10
			CHANNELS 3  Xrotation Yrotation Zrotation
			JOINT spine_3
			{
				OFFSET	0	206.5	19.3
				CHANNELS 3  Xrotation Yrotation Zrotation
				JOINT spine_4
				{
					OFFSET	0	110.4	14.6
					CHANNELS 3  Xrotation Yrotation Zrotation
					JOINT neck_1
					{
						OFFSET	0	71.8	-50.3
						CHANNELS 3  Xrotation Yrotation Zrotation
						JOINT neck_2
						{
							OFFSET	0	86.2	-25.8
							CHANNELS 3  Xrotation Yrotation Zrotation
							JOINT head_ee
							{
								OFFSET	0	179.8	-8.7
								CHANNELS 3  Xrotation Yrotation Zrotation
								End Site
								{
									OFFSET	1	0	0
								}
							}
						}
					}
					JOINT left_clavicle
					{
						OFFSET	-43.2	22.4	-70.8
						CHANNELS 3  Xrotation Yrotation Zrotation
						JOINT left_shoulder
						{
							OFFSET	-93.9	-5.79999	48.7
							CHANNELS 3  Xrotation Yrotation Zrotation
							JOINT left_elbow
							{
								OFFSET	-291.4	-30.8	15.2
								CHANNELS 3  Xrotation Yrotation Zrotation
								JOINT left_lowarm_twist
								{
									OFFSET	-110.7	-3.89999	13.6
									CHANNELS 3  Xrotation Yrotation Zrotation
									JOINT left_hand
									{
										OFFSET	-110.7	-3.89999	13.6
										CHANNELS 3  Xrotation Yrotation Zrotation
										JOINT left_ee
										{
											OFFSET	-80.8	-5.10001	12.1
											CHANNELS 3  Xrotation Yrotation Zrotation
											End Site
											{
												OFFSET	1	0	0
											}
										}
									}
								}
							}
						}
					}
					JOINT right_clavicle
					{
						OFFSET	43.2	22.4	-70.8
						CHANNELS 3  Xrotation Yrotation Zrotation
						JOINT right_shoulder
						{
							OFFSET	93.9	-5.79999	48.7
							CHANNELS 3  Xrotation Yrotation Zrotation
							JOINT right_elbow
							{
								OFFSET	291.4	-30.8	15.2
								CHANNELS 3  Xrotation Yrotation Zrotation
								JOINT right_lowarm_twist
								{
									OFFSET	110.7	-3.89999	13.6
									CHANNELS 3  Xrotation Yrotation Zrotation
									JOINT right_hand
									{
										OFFSET	110.7	-3.89999	13.6
										CHANNELS 3  Xrotation Yrotation Zrotation
										JOINT right_ee
										{
											OFFSET	80.8	-5.10001	12.1
											CHANNELS 3  Xrotation Yrotation Zrotation
											End Site
											{
												OFFSET	1	0	0
											}
										}
									}
								}
							}
						}
					}
				}
			}
		}
	}
	JOINT left_hip
	{
		OFFSET	-82.8	-127.5	0.300001
		CHANNELS 3  Xrotation Yrotation Zrotation
		JOINT left_knee
		{
			OFFSET	-28.2	-396.7	2.2
			CHANNELS 3  Xrotation Yrotation Zrotation
			JOINT left_ankle
			{
				OFFSET	-11.7	-411.3	35.4
				CHANNELS 3  Xrotation Yrotation Zrotation
				JOINT left_toes
				{
					OFFSET	0	-60	-88.6
					CHANNELS 3  Xrotation Yrotation Zrotation
					JOINT left_foot_ee
					{
						OFFSET	-22.5	-16.5	-42.2
						CHANNELS 3  Xrotation Yrotation Zrotation
						End Site
						{
							OFFSET	1	0	0
						}
					}
				}
			}
		}
	}
	JOINT right_hip
	{
		OFFSET	82.8	-127.5	0.300001
		CHANNELS 3  Xrotation Yrotation Zrotation
		JOINT right_knee
		{
			OFFSET	28.2	-396.7	2.2
			CHANNELS 3  Xrotation Yrotation Zrotation
			JOINT right_ankle
			{
				OFFSET	11.7	-411.3	35.4
				CHANNELS 3  Xrotation Yrotation Zrotation
				JOINT right_toes
				{
					OFFSET	0	-60	-88.6
					CHANNELS 3  Xrotation Yrotation Zrotation
					JOINT right_foot_ee
					{
						OFFSET	22.5	-16.5	-42.2
						CHANNELS 3  Xrotation Yrotation Zrotation
						End Site
						{
							OFFSET	1	0	0
						}
					}
				}
			}
		}
	}
}
MOTION
Frames: 12
Frame Time: 0.02
2521.99227091 759.245 -1454.11995081 24.6074525647 69.2367623737 -28.0004334993 -3.59921 0.517496 3.27761 -3.59329 0.308001 3.30386 -3.56661 -0.597949 3.26391 -3.58146 -0.0752677 3.31731 4.07383 18.8905 -3.16492 5.83724 35.454 -3.02033 -0.0 0.0 -0.0 3.72231 8.13382 7.54868 -29.3941 -6.32388 66.4325 0.851816 -22.8778 0.172361 -31.5368 -2.09931 3.389 1.48281 9.25667 13.5143 -0.0 0.0 -0.0 12.2537 18.5289 -24.6136 -10.1387 44.3199 -50.619 2.15383 46.8491 -0.933231 -0.909469 0.032931 -0.111474 0.919359 3.78955 -4.58763 0.0 0.0 0.0 -6.72385 25.3597 -2.97633 -31.88 -0.0325219 4.82977 8.12934 7.10872 -1.16293 -8.3547 0.0 0.0 -0.0 0.0 -0.0 0.976627 34.3255 -6.31254 -1.29181 -0.0510309 -0.191673 -11.9193 8.65693 -1.86638 -22.1603 0.0 0.0 0.0 0.0 0.0 
2518.67552634 764.036 -1447.91741968 24.9458979117 68.9060683569 -27.7159330604 -3.64079 0.441553 3.27711 -3.63484 0.232243 3.29853 -3.61274 -0.67216 3.23773 -3.62733 -0.152678 3.30317 1.34767 19.0595 -2.05014 2.64964 35.4448 -0.918103 -0.0 0.0 -0.0 3.68203 10.3867 7.55519 -29.4058 -8.06799 66.3366 0.846782 -22.7564 0.170409 -32.4348 -2.18486 3.46611 1.40829 11.2771 13.7518 -0.0 0.0 -0.0 12.0918 17.3916 -24.305 -8.64214 43.6778 -50.9622 2.41206 50.0659 -1.12658 0.196902 -0.00689594 0.0242014 0.678813 8.77925 -0.85526 0.0 0.0 0.0 -5.20156 27.1602 -4.23598 -30.5634 0.0220758 4.6351 11.0387 9.18152 -1.56377 -7.74135 0.0 0.0 -0.0 0.0 -0.0 1.86984 32.8105 -6.66877 -1.71689 -0.0668754 -0.254987 -9.97725 9.80883 -1.56849 -24.4111 0.0 0.0 0.0 0.0 0.0 
2508.40837148 761.039 -1453.99973907 15.4296422467 64.5011825773 -17.7283434584 -3.40864 0.479721 2.70353 -3.40462 0.306782 2.72855 -3.38401 -0.434546 2.71116 -3.39427 -0.00108393 2.74573 0.951828 18.9483 -1.7532 2.15532 35.0923 -0.466719 -0.0 0.0 -0.0 3.69749 13.4401 7.66811 -29.1872 -10.9646 66.5769 0.811866 -21.9086 0.157141 -35.9283 -2.52891 3.75316 1.53708 14.4354 15.6925 -0.0 0.0 -0.0 12.5817 18.7312 -25.3584 -3.10832 42.0953 -51.4729 2.32833 49.0673 -1.06285 2.25743 -0.0740498 0.278801 0.0333383 14.4544 5.92843 0.0 0.0 0.0 1.09668 30.1903 -7.39611 -16.906 0.319643 2.5653 13.2389 12.7841 -1.86718 -9.64001 0.0 0.0 -0.0 0.0 -0.0 2.72636 28.9745 -5.52946 -3.66743 -0.133531 -0.546902 -5.47202 13.0765 -0.871651 -28.0152 0.0 0.0 0.0 0.0 0.0 
2509.97147267 759.763 -1453.69942944 12.9981612313 64.9320994834 -14.6335764327 -3.18683 0.489863 2.49349 -3.18343 0.330254 2.51959 -3.16391 -0.346266 2.51744 -3.17275 0.0555297 2.54052 1.73738 18.7228 -2.30251 3.06722 34.9664 -1.329 -0.0 0.0 -0.0 3.7188 13.8875 7.714 -28.6581 -11.4601 66.3973 0.811899 -21.9094 0.157154 -36.8616 -2.62374 3.82627 1.57328 14.6783 16.0096 -0.0 0.0 -0.0 12.5313 20.5992 -25.1139 -2.38968 41.7327 -52.56 2.23668 47.926 -0.994203 2.71393 -0.0876848 0.335518 -0.127018 14.9077 7.2048 0.0 0.0 0.0 1.24078 30.3516 -6.87258 -7.77236 0.24112 1.16754 11.9377 11.9455 -1.68966 -10.5812 0.0 0.0 -0.0 0.0 -0.0 4.03388 29.66 -6.5008 -3.73187 -0.135563 -0.556583 -2.66926 15.0864 -0.42884 -28.5667 0.0 0.0 0.0 0.0 0.0 
2463.65727073 760.537 -1447.80063662 8.90121223685 59.1946154725 -9.63420564579 -2.4606 0.551748 1.73747 -2.45903 0.440088 1.76904 -2.44308 -0.0192027 1.82284 -2.44762 0.268875 1.80301 1.99595 19.6134 -2.03909 3.46828 36.274 -1.09375 -0.0 0.0 -0.0 3.45576 17.2159 7.36766 -27.1689 -12.2545 66.4086 0.850642 -22.8495 0.171905 -39.082 -2.85407 3.99395 1.59644 15.1652 16.3226 -0.0 0.0 -0.0 11.9422 24.1611 -23.4451 -5.99212 40.5172 -52.1756 2.02513 45.086 -0.84069 2.70037 -0.0872862 0.33383 -0.111564 18.4627 8.60654 0.0 0.0 0.0 0.198886 28.7459 -5.141 -11.2112 0.296843 1.6922 3.76322 8.58631 -0.545413 -9.03193 0.0 0.0 -0.0 0.0 -0.0 0.773317 32.2431 -2.73052 -4.6339 -0.162862 -0.692324 10.8653 16.7451 1.69282 -28.8324 0.0 0.0 0.0 0.0 0.0 
2463.72962946 760.537 -1446.87737463 8.94213615942 59.3495732499 -9.68181350681 -2.4606 0.551748 1.73747 -2.45903 0.440088 1.76904 -2.44308 -0.0192027 1.82284 -2.44762 0.268875 1.80301 1.99595 19.6134 -2.03909 3.46828 36.274 -1.09375 -0.0 0.0 -0.0 3.45576 17.2159 7.36766 -27.1689 -12.2545 66.4086 0.850642 -22.8495 0.171905 -39.082 -2.85407 3.99395 1.59644 15.1652 16.3226 -0.0 0.0 -0.0 11.9422 24.1611 -23.4451 -5.99212 40.5172 -52.1756 2.02513 45.086 -0.84069 2.70037 -0.0872862 0.33383 -0.111564 18.4627 8.60654 0.0 0.0 0.0 0.198886 28.7459 -5.141 -11.2112 0.296843 1.6922 3.76322 8.58631 -0.545413 -9.03193 0.0 0.0 -0.0 0.0 -0.0 0.773317 32.2431 -2.73052 -4.6339 -0.162862 -0.692324 10.8653 16.7451 1.69282 -28.8324 0.0 0.0 0.0 0.0 0.0 
2463.88133834 760.537 -1445.03838156 9.02499987249 59.6582743695 -9.77798024399 -2.4606 0.551748 1.73747 -2.45903 0.440088 1.76904 -2.44308 -0.0192027 1.82284 -2.44762 0.268875 1.80301 1.99595 19.6134 -2.03909 3.46828 36.274 -1.09375 -0.0 0.0 -0.0 3.45576 17.2159 7.36766 -27.1689 -12.2545 66.4086 0.850642 -22.8495 0.171905 -39.082 -2.85407 3.99395 1.59644 15.1652 16.3226 -0.0 0.0 -0.0 11.9422 24.1611 -23.4451 -5.99212 40.5172 -52.1756 2.02513 45.086 -0.84069 2.70037 -0.0872862 0.33383 -0.111564 18.4627 8.60654 0.0 0.0 0.0 0.198886 28.7459 -5.141 -11.2112 0.296843 1.6922 3.76322 8.58631 -0.545413 -9.03193 0.0 0.0 -0.0 0.0 -0.0 0.773317 32.2431 -2.73052 -4.6339 -0.162862 -0.692324 10.8653 16.7451 1.69282 -28.8324 0.0 0.0 0.0 0.0 0.0 
2464.27346133 760.537 -1440.75956162 9.22504863547 60.3768253523 -10.0089312074 -2.4606 0.551748 1.73747 -2.45903 0.440088 1.76904 -2.44308 -0.0192027 1.82284 -2.44762 0.268875 1.80301 1.99595 19.6134 -2.03909 3.46828 36.274 -1.09375 -0.0 0.0 -0.0 3.45576 17.2159 7.36766 -27.1689 -12.2545 66.4086 0.850642 -22.8495 0.171905 -39.082 -2.85407 3.99395 1.59644 15.1652 16.3226 -0.0 0.0 -0.0 11.9422 24.1611 -23.4451 -5.99212 40.5172 -52.1756 2.02513 45.086 -0.84069 2.70037 -0.0872862 0.33383 -0.111564 18.4627 8.60654 0.0 0.0 0.0 0.198886 28.7459 -5.141 -11.2112 0.296843 1.6922 3.76322 8.58631 -0.545413 -9.03193 0.0 0.0 -0.0 0.0 -0.0 0.773317 32.2431 -2.73052 -4.6339 -0.162862 -0.692324 10.8653 16.7451 1.69282 -28.8324 0.0 0.0 0.0 0.0 0.0 
2456.79376789 753.657 -1436.78071882 9.49390421718 58.2368994951 -10.5006574068 -2.64902 0.593143 1.76795 -2.64741 0.479461 1.80209 -2.62976 0.0045289 1.86476 -2.63449 0.298925 1.84066 0.0370154 20.6012 -0.916551 1.25958 37.598 0.82097 -0.0 0.0 -0.0 3.27348 17.6168 7.0944 -26.1942 -12.1973 66.2355 0.886125 -23.6993 0.185926 -39.1102 -2.85703 3.99602 1.60795 14.7866 16.2714 -0.0 0.0 -0.0 11.9404 24.438 -23.413 -6.73892 40.7608 -52.2202 1.97746 44.404 -0.807136 1.93428 -0.064125 0.238717 -0.0595027 17.9229 8.0284 0.0 0.0 0.0 0.404697 28.2953 -5.14619 -14.4269 0.320386 2.18497 1.86393 9.0952 -0.27154 -8.50178 0.0 0.0 -0.0 0.0 -0.0 -0.426545 32.2934 -1.0615 -4.11301 -0.147359 -0.613887 12.5768 13.3419 1.89759 -28.6131 0.0 0.0 0.0 0.0 0.0 
2455.68344654 763.552 -1448.00912091 10.1376656634 54.8130859124 -11.3341765154 -2.74025 0.553762 1.95028 -2.73823 0.428564 1.98155 -2.72036 -0.093654 2.02518 -2.72601 0.227294 2.01457 -1.35975 21.2598 -0.110238 -0.340755 38.4938 2.21766 -0.0 0.0 -0.0 3.23361 17.7552 7.0365 -24.2873 -12.2515 65.666 0.931325 -24.7659 0.204479 -39.0091 -2.8464 3.98858 1.61477 14.4643 16.2081 -0.0 0.0 -0.0 11.8537 24.5938 -23.1987 -7.91185 40.7307 -52.0758 1.90641 43.3569 -0.757881 1.39779 -0.0471485 0.172295 -0.0224533 17.3591 7.54033 0.0 0.0 0.0 0.542216 28.0306 -4.80608 -16.5918 0.320647 2.51711 0.560321 9.44825 -0.0819019 -8.1242 0.0 0.0 -0.0 0.0 -0.0 -1.39446 32.1847 -1.18999 -3.75331 -0.136237 -0.559804 13.7579 10.9589 2.03467 -28.4596 0.0 0.0 0.0 0.0 0.0 
2450.70395361 757.974 -1454.65746987 9.63620863094 52.2253458589 -10.5773312004 -2.80054 0.515493 2.05178 -2.79828 0.383917 2.08041 -2.78102 -0.164422 2.10912 -2.78719 0.170662 2.10863 -2.39246 21.6992 0.486973 -1.54013 39.0879 3.26332 -0.0 0.0 -0.0 3.05776 17.7296 6.76465 -23.0797 -12.2829 65.0127 0.963356 -25.5109 0.218086 -38.9529 -2.8405 3.98444 1.61812 14.2438 16.1559 -0.0 0.0 -0.0 11.8735 24.6906 -23.234 -8.64171 40.7292 -52.1713 1.8495 42.4913 -0.719122 1.01607 -0.0346905 0.125132 0.00126751 16.9147 7.19208 0.0 0.0 0.0 0.613764 27.8502 -4.59421 -17.8186 0.315225 2.70525 -0.23396 9.7268 0.0342659 -7.8317 0.0 0.0 -0.0 0.0 -0.0 -2.02894 32.1374 -0.890473 -3.5034 -0.128309 -0.522269 14.5932 9.25354 2.13008 -28.3465 0.0 0.0 0.0 0.0 0.0 
2450.08161421 759.383 -1463.07176088 9.21791281102 51.5918477433 -10.0784212434 -2.72131 0.40107 1.9941 -2.71914 0.273394 2.01556 -2.70658 -0.251972 2.01835 -2.71226 0.0698829 2.03281 -3.1408 21.897 0.740363 -2.41651 39.4415 3.82687 -0.0 0.0 -0.0 2.93299 17.3603 6.55936 -21.8542 -13.0263 63.8936 0.988146 -26.0812 0.228874 -39.0885 -2.85475 3.99443 1.61094 14.08 16.0538 -0.0 0.0 -0.0 11.9636 24.7512 -23.4337 -8.83886 40.8395 -52.2862 1.64953 39.2501 -0.58822 0.741203 -0.0255253 0.0912218 -0.0201618 15.8969 6.90382 0.0 0.0 0.0 0.537221 28.5461 -4.54333 -16.9906 0.319327 2.57827 0.681366 9.87094 -0.099582 -8.03688 0.0 0.0 -0.0 0.0 -0.0 -2.12294 32.1474 -0.109816 -3.66206 -0.133361 -0.546095 15.2115 7.07961 2.19086 -27.9478 0.0 0.0 0.0 0.0 0.0 
